# xmcd CD database file
#
# Track frame offsets:
#	150
#	12075
#	27827
#	44702
#	59850
#	76050
#	98777
#	114825
#	132975
#	146022
#	161325
#	177900
#
# Disc length: 2583 seconds
#
# Revision: 2
# Processed by: cddbd v1.4PL0 Copyright (c) Steve Scherf et al.
# Submitted via: CDex 1.50Beta5
#
DISCID=9a0a150c
DTITLE=Die Flippers - Von Gestern bis Heute
DYEAR=1900
DGENRE=
TTITLE0=Weine nicht, kleine Eva
TTITLE1=Luana
TTITLE2=Marlena
TTITLE3=Surf Baby Surf
TTITLE4=Zwei Schatten am Fenster
TTITLE5=Manuela
TTITLE6=Kinder des Sommers
TTITLE7=Schau in den Spiegel, du bist schön
TTITLE8=Südamerika
TTITLE9=Wenn weiße Wolken heimwärts zieh'n
TTITLE10=Kleine Sonja
TTITLE11=Sha La La I Love You
EXTD=
EXTT0=
EXTT1=
EXTT2=
EXTT3=
EXTT4=
EXTT5=
EXTT6=
EXTT7=
EXTT8=
EXTT9=
EXTT10=
EXTT11=
PLAYORDER=
